<?xml version="1.0" standalone="no"?>
<!DOCTYPE svg PUBLIC "-//W3C//DTD SVG 20010904//EN"
 "http://www.w3.org/TR/2001/REC-SVG-20010904/DTD/svg10.dtd">
<svg version="1.0" xmlns="http://www.w3.org/2000/svg"
 width="92.000000pt" height="92.000000pt" viewBox="0 0 92.000000 92.000000"
 preserveAspectRatio="xMidYMid meet">

<g transform="translate(0.000000,92.000000) scale(0.100000,-0.100000)"
fill="#ff0000" stroke="none">
<path d="M370 695 l0 -175 -175 0 -175 0 0 -80 0 -80 175 0 175 0 0 -180 0
-181 83 3 82 3 3 177 2 178 175 0 175 0 0 80 0 80 -175 0 -175 0 0 175 0 175
-85 0 -85 0 0 -175z"/>
<path d="M606 780 c-39 -42 -46 -55 -46 -91 l0 -41 50 42 c70 59 89 102 56
129 -10 9 -23 0 -60 -39z"/>
<path d="M200 802 c0 -20 122 -151 143 -152 28 -1 -17 131 -51 149 -24 13 -92
15 -92 3z"/>
<path d="M658 701 c-96 -94 -121 -151 -68 -151 28 0 170 146 170 175 0 28 -10
56 -19 53 -3 0 -41 -35 -83 -77z"/>
<path d="M135 737 c-17 -13 -17 -14 1 -28 10 -8 43 -42 71 -75 53 -62 100 -91
128 -80 17 6 21 56 4 56 -5 0 -41 32 -78 70 -68 71 -91 82 -126 57z"/>
<path d="M728 628 c-68 -67 -71 -73 -48 -76 60 -10 150 49 150 98 0 25 -10 50
-20 50 -5 0 -41 -32 -82 -72z"/>
<path d="M86 657 c-16 -12 -14 -16 26 -59 45 -49 86 -66 119 -52 17 8 14 14
-36 67 -57 58 -78 67 -109 44z"/>
<path d="M673 334 c-15 -6 98 -124 118 -124 9 0 23 6 33 13 17 13 17 16 -14
51 -48 54 -97 76 -137 60z"/>
<path d="M133 310 c-36 -22 -53 -48 -53 -82 0 -50 14 -48 78 8 34 31 67 64 72
75 10 17 7 19 -27 19 -21 0 -52 -9 -70 -20z"/>
<path d="M218 256 c-54 -58 -68 -79 -68 -104 0 -38 17 -51 35 -24 8 10 37 37
65 58 51 39 81 78 95 122 6 20 3 22 -27 21 -27 -1 -44 -14 -100 -73z"/>
<path d="M570 306 c0 -34 139 -176 172 -176 54 0 50 20 -19 97 -89 99 -153
132 -153 79z"/>
<path d="M283 181 c-42 -38 -53 -54 -53 -79 0 -51 19 -49 72 6 39 41 48 57 48
86 0 20 -3 36 -7 36 -5 0 -32 -22 -60 -49z"/>
<path d="M570 189 c0 -51 25 -94 65 -113 30 -15 75 -12 75 4 0 14 -87 116
-114 134 l-26 16 0 -41z"/>
</g>
</svg>
