<?xml version="1.0" encoding="UTF-8" standalone="no"?>
<svg
   version="1.0"
   width="92.000000pt"
   height="92.000000pt"
   viewBox="0 0 92.000000 92.000000"
   preserveAspectRatio="xMidYMid meet"
   id="svg30"
   sodipodi:docname="st john logo.svg"
   inkscape:version="1.1.2 (b8e25be833, 2022-02-05)"
   xmlns:inkscape="http://www.inkscape.org/namespaces/inkscape"
   xmlns:sodipodi="http://sodipodi.sourceforge.net/DTD/sodipodi-0.dtd"
   xmlns:xlink="http://www.w3.org/1999/xlink"
   xmlns="http://www.w3.org/2000/svg"
   xmlns:svg="http://www.w3.org/2000/svg">
  <defs
     id="defs34" />
  <sodipodi:namedview
     id="namedview32"
     pagecolor="#ffffff"
     bordercolor="#666666"
     borderopacity="1.0"
     inkscape:pageshadow="2"
     inkscape:pageopacity="0.0"
     inkscape:pagecheckerboard="0"
     inkscape:document-units="pt"
     showgrid="false"
     inkscape:zoom="3.2223317"
     inkscape:cx="30.41276"
     inkscape:cy="54.618834"
     inkscape:window-width="1366"
     inkscape:window-height="745"
     inkscape:window-x="-8"
     inkscape:window-y="-8"
     inkscape:window-maximized="1"
     inkscape:current-layer="svg30" />
  <g
     id="g81981"
     transform="translate(2.331312,-0.01313252)">
    <g
       id="g16135"
       transform="matrix(0.64109354,0,0,0.64109354,22.048386,63.831837)">
      <g
         id="g43911"
         transform="translate(27.212001,-62.125513)">
        <g
           transform="matrix(0.03585827,0,0,-0.03581702,-52.374333,49.873289)"
           fill="#000000"
           stroke="none"
           id="g28"
           style="fill:#d0180d;fill-opacity:0.952941">
          <path
             d="M 369.99997,694.99995 V 520.00003 H 195.00005 20 V 439.99999 360 H 195.00005 369.99997 V 179.99999 -0.99999818 L 453,2.000004 534.99995,5.0000008 537.99996,182.00001 539.99998,360 H 715.00001 890 v 79.99999 80.00004 H 715.00001 539.99998 V 694.99995 870 h -84.99992 -85.00009 z"
             id="path2"
             style="fill:#d0180d;fill-opacity:0.952941;stroke-width:0.999988" />
          <path
             d="m 606,780 c -39,-42 -46,-55 -46,-91 v -41 l 50,42 c 70,59 89,102 56,129 -10,9 -23,0 -60,-39 z"
             id="path4"
             style="fill:#d0180d;fill-opacity:0.952941" />
          <path
             d="m 200,802 c 0,-20 122,-151 143,-152 28,-1 -17,131 -51,149 -24,13 -92,15 -92,3 z"
             id="path6"
             style="fill:#d0180d;fill-opacity:0.952941" />
          <path
             d="M 658,701 C 562,607 537,550 590,550 c 28,0 170,146 170,175 0,28 -10,56 -19,53 -3,0 -41,-35 -83,-77 z"
             id="path8"
             style="fill:#d0180d;fill-opacity:0.952941" />
          <path
             d="m 135,737 c -17,-13 -17,-14 1,-28 10,-8 43,-42 71,-75 53,-62 100,-91 128,-80 17,6 21,56 4,56 -5,0 -41,32 -78,70 -68,71 -91,82 -126,57 z"
             id="path10"
             style="fill:#d0180d;fill-opacity:0.952941" />
          <path
             d="m 728,628 c -68,-67 -71,-73 -48,-76 60,-10 150,49 150,98 0,25 -10,50 -20,50 -5,0 -41,-32 -82,-72 z"
             id="path12"
             style="fill:#d0180d;fill-opacity:0.952941" />
          <path
             d="m 86,657 c -16,-12 -14,-16 26,-59 45,-49 86,-66 119,-52 17,8 14,14 -36,67 -57,58 -78,67 -109,44 z"
             id="path14"
             style="fill:#d0180d;fill-opacity:0.952941" />
          <path
             d="m 673,334 c -15,-6 98,-124 118,-124 9,0 23,6 33,13 17,13 17,16 -14,51 -48,54 -97,76 -137,60 z"
             id="path16"
             style="fill:#d0180d;fill-opacity:0.952941" />
          <path
             d="M 133,310 C 97,288 80,262 80,228 c 0,-50 14,-48 78,8 34,31 67,64 72,75 10,17 7,19 -27,19 -21,0 -52,-9 -70,-20 z"
             id="path18"
             style="fill:#d0180d;fill-opacity:0.952941" />
          <path
             d="m 218,256 c -54,-58 -68,-79 -68,-104 0,-38 17,-51 35,-24 8,10 37,37 65,58 51,39 81,78 95,122 6,20 3,22 -27,21 -27,-1 -44,-14 -100,-73 z"
             id="path20"
             style="fill:#d0180d;fill-opacity:0.952941" />
          <path
             d="m 570,306 c 0,-34 139,-176 172,-176 54,0 50,20 -19,97 -89,99 -153,132 -153,79 z"
             id="path22"
             style="fill:#d0180d;fill-opacity:0.952941" />
          <path
             d="m 283,181 c -42,-38 -53,-54 -53,-79 0,-51 19,-49 72,6 39,41 48,57 48,86 0,20 -3,36 -7,36 -5,0 -32,-22 -60,-49 z"
             id="path24"
             style="fill:#d0180d;fill-opacity:0.952941" />
          <path
             d="m 570,189 c 0,-51 25,-94 65,-113 30,-15 75,-12 75,4 0,14 -87,116 -114,134 l -26,16 z"
             id="path26"
             style="fill:#d0180d;fill-opacity:0.952941" />
        </g>
        <text
           xml:space="preserve"
           style="font-style:normal;font-variant:normal;font-weight:normal;font-stretch:normal;font-size:24.9574px;line-height:1.25;font-family:'Trebuchet MS';-inkscape-font-specification:'Trebuchet MS';fill:#000000;fill-opacity:1;stroke:none;stroke-width:0.75"
           x="-5.2210979"
           y="43.237206"
           id="text2405"><tspan
             sodipodi:role="line"
             id="tspan2403"
             style="font-style:normal;font-variant:normal;font-weight:normal;font-stretch:normal;font-size:24.9574px;font-family:'Trebuchet MS';-inkscape-font-specification:'Trebuchet MS';stroke-width:0.75"
             x="-5.2210979"
             y="43.237206">Caritas</tspan></text>
        <text
           xml:space="preserve"
           style="font-style:normal;font-variant:normal;font-weight:normal;font-stretch:normal;font-size:17.1582px;line-height:1.25;font-family:'Trebuchet MS';-inkscape-font-specification:'Trebuchet MS';fill:#d0190d;fill-opacity:0.952941;stroke:none;stroke-width:0.75"
           x="17.899263"
           y="56.19268"
           id="text8413"><tspan
             sodipodi:role="line"
             id="tspan8411"
             style="font-style:normal;font-variant:normal;font-weight:normal;font-stretch:normal;font-size:17.1582px;font-family:'Trebuchet MS';-inkscape-font-specification:'Trebuchet MS';fill:#d0190d;fill-opacity:0.952941;stroke-width:0.75"
             x="17.899263"
             y="56.19268">Nairobi</tspan></text>
      </g>
    </g>
    <text
       xml:space="preserve"
       style="font-style:normal;font-weight:normal;font-size:4px;line-height:1.25;font-family:sans-serif;white-space:pre;fill:#d0180d;fill-opacity:0.952941;stroke:none;stroke-width:0.75"
       id="text45535"><textPath
         xlink:href="#path66009"
         id="textPath70434"><tspan
           id="tspan45533"
           style="font-size:4px;fill:#d0180d;fill-opacity:0.952941;stroke-width:0.75">St. John the Evangelist Githiga SHG</tspan></textPath></text>
  </g>
  <circle
     style="opacity:0;fill:#d0170d;fill-opacity:0.952941;stroke:#0867a5;stroke-width:0;stroke-opacity:0"
     id="path66009"
     cx="16.255678"
     cy="46.01635"
     r="11.999999" />
</svg>
