<svg xmlns="http://www.w3.org/2000/svg" version="1.1" xmlns:xlink="http://www.w3.org/1999/xlink" xmlns:svgjs="http://svgjs.com/svgjs" width="512" height="512" x="0" y="0" viewBox="0 0 64 64" style="enable-background:new 0 0 512 512" xml:space="preserve" class="">
	<g>
		<path d="m61 23a1 1 0 0 0 -1-1h-10a1 1 0 0 0 -1 1v38h-11v-26a1 1 0 0 0 -1-1h-10a1 1 0 0 0 -1 1v26h-11v-11h.123l.86 5.165a1 1 0 0 0 .987.835h3a1 1 0 0 0 .989-1.146l-1.207-8.147a2.013 2.013 0 0 0 -1.979-1.707h-1.784l.088-4.522v-.02a3.437 3.437 0 0 0 -2.442-3.278 3.5 3.5 0 1 0 -4.365.068 3.4 3.4 0 0 0 -2.221 3.561l.5 6.127a3.443 3.443 0 0 0 .305 1.064h-3.854a1 1 0 0 0 -1 1v12h-2v2h62v-2h-2zm-49.589 10a1.5 1.5 0 1 1 -1.5 1.5 1.5 1.5 0 0 1 1.5-1.5zm1.589 28h-8v-11h8zm-2.03-13a1.436 1.436 0 0 1 -1.433-1.255l-.5-6.127a1.445 1.445 0 0 1 1.436-1.6h2.158a1.446 1.446 0 0 1 1.444 1.436l-.107 5.53a1 1 0 0 0 1 1.02h2.8l1.038 7h-.994l-.861-5.165a1 1 0 0 0 -.981-.839zm25.03 13h-8v-25h8zm23 0h-8v-37h8z" fill="#ffffff" data-original="#000000" class=""></path>
		<path d="m48.049 11.344a1 1 0 0 0 .253 1.025l2.624 2.557-.62 3.612a1 1 0 0 0 1.451 1.054l3.243-1.705 3.243 1.7a1 1 0 0 0 1.451-1.054l-.62-3.612 2.626-2.552a1 1 0 0 0 -.554-1.706l-3.626-.527-1.62-3.285a1.041 1.041 0 0 0 -1.794 0l-1.621 3.285-3.626.527a1 1 0 0 0 -.81.681zm5.241.7a1 1 0 0 0 .753-.547l.957-1.944.957 1.94a1 1 0 0 0 .753.547l2.141.311-1.551 1.51a1 1 0 0 0 -.288.885l.366 2.132-1.915-1.006a1 1 0 0 0 -.93 0l-1.913 1.006.366-2.132a1 1 0 0 0 -.288-.885l-1.549-1.51z" fill="#ffffff" data-original="#000000" class=""></path>
		<path d="m54 1h2v3h-2z" fill="#ffffff" data-original="#000000" class=""></path>
		<path d="m59.815 3.611h3v2h-3z" transform="matrix(.602 -.799 .799 .602 20.747 50.818)" fill="#ffffff" data-original="#000000" class=""></path>
		<path d="m47.685 3.111h2v3h-2z" transform="matrix(.799 -.601 .601 .799 7.017 30.209)" fill="#ffffff" data-original="#000000" class=""></path>
		<path d="m17.848 32.278 6.584-3.767-.48 1.764 1.929.525 1.119-4.093a1 1 0 0 0 -.7-1.228l-4.1-1.114-.526 1.929 1.765.481-6.585 3.767z" fill="#ffffff" data-original="#000000" class=""></path>
	</g>
</svg>