<svg xmlns="http://www.w3.org/2000/svg" version="1.1" xmlns:xlink="http://www.w3.org/1999/xlink" xmlns:svgjs="http://svgjs.com/svgjs" width="512" height="512" x="0" y="0" viewBox="0 0 468 468" style="enable-background:new 0 0 512 512" xml:space="preserve" class="">
	<g>
		<g>
			<g>
				<g>
					<g>
						<g>
							<path d="m100.245 437.759c-2.762 0-5-2.238-5-5v-170.695c0-2.762 2.238-5 5-5h49.527c2.762 0 5 2.238 5 5v32.35c0 2.762-2.238 5-5 5s-5-2.238-5-5v-27.35h-39.527v165.694c0 2.763-2.238 5.001-5 5.001z" fill="#ffffff" data-original="#000000"></path>
						</g>
					</g>
					<g>
						<g>
							<path d="m149.772 437.759c-2.762 0-5-2.238-5-5v-72.655c0-2.762 2.238-5 5-5s5 2.238 5 5v72.655c0 2.762-2.238 5-5 5z" fill="#ffffff" data-original="#000000"></path>
						</g>
					</g>
					<g>
						<g>
							<path d="m54.527 437.759c-2.762 0-5-2.238-5-5v-118.007h-39.527v118.007c0 2.762-2.238 5-5 5s-5-2.238-5-5v-123.007c0-2.762 2.238-5 5-5h49.527c2.762 0 5 2.238 5 5v123.007c0 2.762-2.238 5-5 5z" fill="#ffffff" data-original="#000000"></path>
						</g>
					</g>
				</g>
				<g>
					<path d="m328.649 90.176c-.703-1.287-1.936-2.2-3.372-2.499l-23.209-4.815c-2.711-.56-5.352 1.177-5.911 3.88-.562 2.704 1.176 5.351 3.88 5.911l10.085 2.092-262.103 146.449c-2.411 1.348-3.273 4.394-1.927 6.804.916 1.64 2.617 2.563 4.37 2.563.825 0 1.662-.205 2.434-.636l261.757-146.255-3.728 9.723c-.988 2.578.301 5.47 2.879 6.458 2.398.919 5.53-.456 6.459-2.879l8.667-22.608c.525-1.37.423-2.901-.281-4.188z" fill="#ffffff" data-original="#000000"></path>
				</g>
				<g>
					<g>
						<path d="m290.734 228.179c-2.762 0-5-2.239-5-5v-66.029c0-2.761 2.238-5 5-5h49.527c2.762 0 5 2.239 5 5v50.766c0 2.761-2.238 5-5 5s-5-2.239-5-5v-45.766h-39.527v61.028c0 2.762-2.238 5.001-5 5.001z" fill="#ffffff" data-original="#000000"></path>
					</g>
				</g>
			</g>
			<g>
				<g>
					<g>
						<path d="m137.715 144.434h-117.43c-8.271 0-15-6.729-15-15v-30.686c0-2.761 2.238-5 5-5s5 2.239 5 5v30.686c0 2.757 2.243 5 5 5h117.43c2.757 0 5-2.243 5-5v-30.686c0-2.761 2.238-5 5-5s5 2.239 5 5v30.686c0 8.271-6.729 15-15 15z" fill="#ffffff" data-original="#000000"></path>
					</g>
				</g>
				<g>
					<path d="m143 30.42h-30.457v-15.423c0-8.27-6.729-14.997-15-14.997h-37.086c-8.271 0-15 6.728-15 14.997v15.423h-30.457c-8.271 0-15 6.728-15 14.997v19.32c0 5.016 3.393 9.395 8.25 10.649l50.75 13.103v14.05c0 2.761 2.238 5 5 5h30c2.762 0 5-2.239 5-5v-14.05l50.75-13.102c4.857-1.254 8.25-5.633 8.25-10.649v-19.32c0-8.271-6.729-14.998-15-14.998zm-87.543-15.423c0-2.755 2.243-4.997 5-4.997h37.086c2.757 0 5 2.242 5 4.997v15.423h-47.086zm33.543 82.542h-20v-19.992h20zm59-32.802c0 .455-.309.853-.75.967l-48.25 12.457v-5.614c0-2.761-2.238-5-5-5h-30c-2.762 0-5 2.239-5 5v5.614l-48.25-12.457c-.441-.114-.75-.512-.75-.967v-19.32c0-2.755 2.243-4.997 5-4.997h128c2.757 0 5 2.242 5 4.997z" fill="#ffffff" data-original="#000000"></path>
				</g>
			</g>
			<g>
				<path d="m466.535 176.364c-1.951-1.952-5.119-1.952-7.07 0l-18.095 18.095c-9.511-16.373-33.237-17.242-44.352-2.174-12.862 16.55-17.131 38.096-11.684 58.209l-26.417 26.417c-19.581-17.944-45.656-28.911-74.246-28.911-12.103 0-23.753 1.97-34.653 5.597v-39.221c0-2.761-2.238-5-5-5h-49.528c-2.762 0-5 2.239-5 5v86.845c-10.036 16.585-15.819 36.019-15.819 56.779 0 60.654 49.346 110 110 110s110-49.346 110-110c0-28.474-10.876-54.455-28.691-74.01l26.374-26.374c20.331 5.93 42.697 1.65 59.419-11.338 15.321-11.415 13.808-35.797-3.295-44.786l18.057-18.057c1.953-1.952 1.953-5.118 0-7.071zm-266.045 43.012h39.527v38.105c-15.344 6.843-28.842 17.099-39.527 29.798zm184.181 138.624c0 55.141-44.859 100-100 100s-100-44.859-100-100 44.859-100 100-100c25.833 0 49.41 9.847 67.174 25.984l-19.835 19.835c-12.667-11.081-29.226-17.819-47.339-17.819-39.701 0-72 32.299-72 72s32.299 72 72 72 72-32.299 72-72c0-17.997-6.652-34.458-17.607-47.094l19.838-19.838c16.008 17.736 25.769 41.215 25.769 66.932zm-103.307 3.535c2.357 1.953 4.714 1.953 7.07 0l15.52-15.519c2.171 3.481 3.431 7.588 3.431 11.984 0 12.525-10.189 22.715-22.714 22.715s-22.715-10.189-22.715-22.715 10.189-22.715 22.715-22.715c4.515 0 8.723 1.33 12.263 3.61l-15.57 15.57c-1.953 1.952-1.953 5.118 0 7.07zm22.753-29.823c-5.44-4.035-12.169-6.427-19.447-6.427-18.039 0-32.715 14.676-32.715 32.715s14.676 32.715 32.715 32.715c18.038 0 32.714-14.676 32.714-32.715 0-7.16-2.319-13.786-6.236-19.179l20.831-20.831c9.154 10.807 14.691 24.771 14.691 40.01 0 34.187-27.813 62-62 62s-62-27.813-62-62 27.813-62 62-62c15.355 0 29.414 5.624 40.255 14.903zm100.798-133.29c7.654-10.202 24.311-8.943 28.98 3.512l-40.149 40.149c-2.472-15.352 1.467-31.178 11.169-43.661zm47.189 22.765c1.535 6.594-1.137 13.164-6.472 17.198-12.875 10.001-29.216 13.857-44.971 10.924l40.177-40.177c5.72 1.703 9.882 6.11 11.266 12.055z" fill="#ffffff" data-original="#000000"></path>
			</g>
			<g>
				<g>
					<g>
						<path d="m406 124c-34.187 0-62-27.813-62-62s27.813-62 62-62 62 27.813 62 62-27.813 62-62 62zm0-114c-28.673 0-52 23.327-52 52s23.327 52 52 52 52-23.327 52-52-23.327-52-52-52z" fill="#ffffff" data-original="#000000"></path>
					</g>
				</g>
				<g>
					<g>
						<path d="m410.026 56.575v-16.824c3.439.689 6.713 2.186 9.525 4.366 2.876 2.001 7.146-.75 7.182-4.085.005-1.171-.439-2.276-1.282-3.14-4.324-3.757-9.802-6.05-15.475-6.488v-5.495c0-1.994-1.6-3.617-3.492-3.617-2.096 0-3.833 1.4-3.866 3.617v5.298c-11.159.995-18.907 8.234-18.907 17.739 0 11.37 8.896 14.884 18.907 17.654v19.283c-4.575-.734-8.845-2.707-12.396-5.736-2.961-2.388-7.457.326-7.412 3.96-.006 1.17.438 2.276 1.272 3.132 5.126 4.682 11.708 7.433 18.585 7.779v5.075c.229 2.028 1.555 3.74 3.779 3.623 1.973 0 3.579-1.626 3.579-3.623v-5.193c14.113-1.146 19.158-10.404 19.158-18.757-.001-12.119-9.815-15.977-19.157-18.568zm8.947 19.684c0 3.586-2.366 7.702-8.947 8.729v-17.157c5.431 1.639 8.992 3.765 8.947 8.428zm-16.305-36.917v15.301c-4.948-1.509-8.649-3.112-8.649-7.307 0-4.3 3.375-7.394 8.649-7.994z" fill="#ffffff" data-original="#000000"></path>
					</g>
				</g>
			</g>
			<g>
				<g>
					<circle cx="340.262" cy="236.916" r="6.5" fill="#ffffff" data-original="#000000"></circle>
				</g>
			</g>
			<g>
				<g>
					<circle cx="149.772" cy="327.319" r="6.5" fill="#ffffff" data-original="#000000"></circle>
				</g>
			</g>
			<g>
				<g>
					<circle cx="23.264" cy="262.064" r="6.5" fill="#ffffff" data-original="#000000"></circle>
				</g>
			</g>
		</g>
	</g>
</svg>