<svg xmlns="http://www.w3.org/2000/svg" version="1.1" xmlns:xlink="http://www.w3.org/1999/xlink" xmlns:svgjs="http://svgjs.com/svgjs" width="512" height="512" x="0" y="0" viewBox="0 0 512 512" style="enable-background:new 0 0 512 512" xml:space="preserve" class="">
	<g>
		<g>
			<path d="m149.784 94.94c-.316-.376-5.363-6.283-13.642-9.745l.917-5.203c.72-4.079-2.004-7.969-6.083-8.688-4.082-.716-7.969 2.004-8.688 6.084l-.965 5.472c-.251.023-.5.039-.754.069-8.998 1.067-16.335 7.103-18.692 15.375-2.109 7.403.218 14.902 6.072 19.572 11.149 8.89 26.372 13.025 23.627 20.517-1.211 3.303-5.973 6.099-11.849 5.065-6.009-1.059-11.365-4.502-14.328-9.211-2.207-3.506-6.838-4.559-10.342-2.353-3.506 2.206-4.56 6.836-2.354 10.342 3.65 5.8 9.264 10.473 15.795 13.356l-.97 5.5c-.72 4.079 2.004 7.969 6.083 8.688 4.105.722 7.973-2.027 8.688-6.084l.89-5.049c10.224-.341 19.179-6.113 22.47-15.095 2.956-8.067 1.09-19.626-13.022-27.847-6.69-3.897-11.894-6.812-15.337-9.558-1.39-1.107-1.31-2.642-.999-3.734.553-1.938 2.428-4.162 6.033-4.589 9.011-1.061 15.807 6.587 15.981 6.786 2.665 3.14 7.37 3.543 10.532.895 3.178-2.66 3.596-7.39.937-10.565z" fill="#661111" data-original="#000000" class=""></path>
			<path d="m492.454 249.705-59.958-10.572 68.01-74.335c6.354-6.945 6.39-17.911-.077-24.891l-32.079-34.627c-3.466-3.741-8.379-5.887-13.479-5.887h-82.236c-5.1 0-10.013 2.146-13.479 5.887l-32.078 34.627c-6.422 6.93-6.474 17.901-.078 24.891l60.798 66.454-83.615-14.743v-.086c0-18.348-14.928-33.275-33.276-33.275h-29.814c-12.483 0-23.377 6.913-29.07 17.108l-17.863-3.15 22.283-126.372c1.199-6.799-3.357-13.307-10.155-14.505l-140.922-24.85c-3.299-.582-6.618.156-9.357 2.074s-4.568 4.789-5.148 8.083l-22.284 126.372-.817-.144c-12.838-2.257-25.132 6.341-27.398 19.184-2.266 12.846 6.34 25.141 19.184 27.409l188.271 33.197v70.388c0 4.142 3.357 7.5 7.5 7.5s7.5-3.358 7.5-7.5v-101.52c0-10.077 8.199-18.275 18.276-18.275h29.814c10.077 0 18.276 8.198 18.276 18.275v147.767h-66.367v-11.246c0-4.142-3.357-7.5-7.5-7.5s-7.5 3.358-7.5 7.5v11.246h-52.694c-9.039 0-16.526 6.783-17.416 15.779l-8.065 81.625c-.485 4.907 1.135 9.817 4.445 13.471 3.312 3.654 8.038 5.75 12.97 5.75h217.889c4.932 0 9.658-2.096 12.97-5.75 3.311-3.654 4.931-8.564 4.445-13.47l-8.065-81.627c-.89-8.996-8.377-15.779-17.416-15.779h-52.694v-99.648c118.591 20.866 111.509 19.763 112.756 19.763 3.571 0 6.735-2.561 7.377-6.199.72-4.079-2.004-7.969-6.084-8.688l-114.049-20.107v-17.569l185.664 32.737c4.698.83 7.848 5.325 7.019 10.022-.825 4.67-5.266 7.856-10.023 7.016l-33.61-5.92c-4.074-.718-7.968 2.006-8.688 6.085-.718 4.08 2.006 7.969 6.086 8.688l33.608 5.92c6.299 1.109 12.56-.334 17.675-3.915 5.173-3.622 8.627-9.045 9.724-15.268 2.264-12.841-6.341-25.132-19.186-27.4zm-427.252-203.124 136.038 23.988-21.853 123.931-136.038-23.987zm-43.05 153.004c-4.699-.83-7.848-5.33-7.019-10.031.829-4.697 5.324-7.848 10.021-7.018 18.443 3.261 176.754 31.166 182.704 32.215-.075 1.509-.028.932-.042 17.571zm337.214 181.857 8.065 81.627c.095.959-.356 1.617-.635 1.923-.277.307-.888.822-1.853.822h-217.888c-.965 0-1.575-.515-1.853-.822s-.729-.964-.635-1.924l8.065-81.626c.127-1.285 1.196-2.254 2.488-2.254h201.756c1.294 0 2.363.969 2.49 2.254zm31.319-233.997 11.376-33.052h23.382l11.377 33.053c.53 1.541.738 3.844.635 6.004-15.826 1.125-31.743 1.091-47.408-.096-.092-2.132.115-4.39.638-5.909zm3.85 21.228c6.58.386 13.193.59 19.821.59 6.192 0 12.394-.179 18.588-.516l-19.192 56.459zm54.686-1.204c11.183-1.149 22.282-2.852 33.187-5.111l-50.043 54.697zm-70.991-.157 16.908 49.741-50.541-55.242c10.961 2.429 22.213 4.261 33.633 5.501zm79.116-51.838 28.518 30.784c-10.937 2.521-22.107 4.438-33.381 5.77-.034-3.348-.521-6.677-1.48-9.465l-9.697-28.17h13.564c.937 0 1.84.394 2.476 1.081zm-87.188 0c.638-.687 1.54-1.082 2.476-1.082h13.563l-9.696 28.17c-.943 2.738-1.425 6-1.474 9.287-11.232-1.402-22.271-3.408-32.983-6.028z" fill="#661111" data-original="#000000" class=""></path>
		</g>
	</g>
</svg>