<svg xmlns="http://www.w3.org/2000/svg" version="1.1" xmlns:xlink="http://www.w3.org/1999/xlink"
	xmlns:svgjs="http://svgjs.com/svgjs" width="512" height="512" x="0" y="0"
	viewBox="0 0 682.66669 682.66669" style="enable-background:new 0 0 512 512" xml:space="preserve"><g><defs id="defs4591"><clipPath clipPathUnits="userSpaceOnUse" id="clipPath4605"><path d="M 0,512 H 512 V 0 H 0 Z" id="path4603" fill="#661111" data-original="#000000"></path></clipPath></defs><g id="g4593" transform="matrix(1.3333333,0,0,-1.3333333,0,682.66667)"><g id="g4595" transform="translate(203.5596,430.835)"><path d="M 0,0 H 212.437" style="stroke-width:15;stroke-linecap:round;stroke-linejoin:round;stroke-miterlimit:10;stroke-dasharray:none;stroke-opacity:1" id="path4597" fill="none" stroke="#661111" stroke-width="15" stroke-linecap="round" stroke-linejoin="round" stroke-miterlimit="10" stroke-dasharray="none" stroke-opacity="" data-original="#000000"></path></g><g id="g4599"><g id="g4601" clip-path="url(#clipPath4605)"><g id="g4607" transform="translate(83.9189,140.3604)"><path d="m 0,0 h -35.39 c -15.787,0 -28.586,12.799 -28.586,28.586 v 233.303 c 0,15.787 12.799,28.586 28.586,28.586 h 7.7" style="stroke-width:15;stroke-linecap:round;stroke-linejoin:round;stroke-miterlimit:10;stroke-dasharray:none;stroke-opacity:1" id="path4609" fill="none" stroke="#661111" stroke-width="15" stroke-linecap="round" stroke-linejoin="round" stroke-miterlimit="10" stroke-dasharray="none" stroke-opacity="" data-original="#000000"></path></g><g id="g4611" transform="translate(482.3857,331)"><path d="m 0,0 v -162.054 c 0,-15.787 -12.799,-28.586 -28.586,-28.586 l -277.93,-0.001" style="stroke-width:15;stroke-linecap:round;stroke-linejoin:round;stroke-miterlimit:10;stroke-dasharray:none;stroke-opacity:1" id="path4613" fill="none" stroke="#661111" stroke-width="15" stroke-linecap="round" stroke-linejoin="round" stroke-miterlimit="10" stroke-dasharray="none" stroke-opacity="" data-original="#000000"></path></g><g id="g4615" transform="translate(186.168,394.2812)"><path d="M 0,0 H 237.418" style="stroke-width:15;stroke-linecap:round;stroke-linejoin:round;stroke-miterlimit:10;stroke-dasharray:none;stroke-opacity:1" id="path4617" fill="none" stroke="#661111" stroke-width="15" stroke-linecap="round" stroke-linejoin="round" stroke-miterlimit="10" stroke-dasharray="none" stroke-opacity="" data-original="#000000"></path></g><g id="g4619" transform="translate(19.9434,394.2812)"><path d="M 0,0 H 53.676" style="stroke-width:15;stroke-linecap:round;stroke-linejoin:round;stroke-miterlimit:10;stroke-dasharray:none;stroke-opacity:1" id="path4621" fill="none" stroke="#661111" stroke-width="15" stroke-linecap="round" stroke-linejoin="round" stroke-miterlimit="10" stroke-dasharray="none" stroke-opacity="" data-original="#000000"></path></g><g id="g4623" transform="translate(154.1045,430.835)"><path d="m 0,0 c 0,-13.371 -10.84,-24.211 -24.211,-24.211 -13.371,0 -24.21,10.84 -24.21,24.211 0,13.371 10.839,24.21 24.21,24.21 C -10.84,24.21 0,13.371 0,0 Z" style="stroke-width:15;stroke-linecap:round;stroke-linejoin:round;stroke-miterlimit:10;stroke-dasharray:none;stroke-opacity:1" id="path4625" fill="none" stroke="#661111" stroke-width="15" stroke-linecap="round" stroke-linejoin="round" stroke-miterlimit="10" stroke-dasharray="none" stroke-opacity="" data-original="#000000"></path></g><g id="g4627" transform="translate(203.5586,418.5791)"><path d="m 0,0 v 24.511 l -22.32,4.698 c -0.839,2.543 -1.862,5.001 -3.053,7.361 L -12.91,55.679 -30.241,73.011 -49.35,60.548 c -2.36,1.19 -4.818,2.213 -7.361,3.052 l -4.698,22.321 H -85.92 L -90.618,63.6 c -2.543,-0.839 -5.001,-1.862 -7.361,-3.052 l -19.109,12.463 -17.332,-17.332 12.463,-19.109 c -1.19,-2.36 -2.213,-4.818 -3.052,-7.361 L -147.33,24.511 V 0 l 22.321,-4.698 c 0.839,-2.543 1.862,-5.001 3.052,-7.362 l -12.463,-19.108 17.332,-17.331 19.109,12.463 c 2.36,-1.192 4.818,-2.213 7.361,-3.053 l 4.698,-22.32 h 24.511 l 4.698,22.32 c 2.543,0.84 5.001,1.861 7.361,3.053 l 19.109,-12.463 17.331,17.331 -12.463,19.108 c 1.191,2.361 2.214,4.819 3.053,7.362 z" style="stroke-width:15;stroke-linecap:round;stroke-linejoin:round;stroke-miterlimit:10;stroke-dasharray:none;stroke-opacity:1" id="path4629" fill="none" stroke="#661111" stroke-width="15" stroke-linecap="round" stroke-linejoin="round" stroke-miterlimit="10" stroke-dasharray="none" stroke-opacity="" data-original="#000000"></path></g><path d="M 154.104,288.795 H 77.709 v 28.991 h 76.395 z" style="stroke-width:15;stroke-linecap:round;stroke-linejoin:round;stroke-miterlimit:10;stroke-dasharray:none;stroke-opacity:1" id="path4631" fill="none" stroke="#661111" stroke-width="15" stroke-linecap="round" stroke-linejoin="round" stroke-miterlimit="10" stroke-dasharray="none" stroke-opacity="" data-original="#000000"></path><g id="g4633" transform="translate(261.1641,324.1602)"><path d="m 0,0 23.314,23.313 c 2.731,2.732 7.138,2.732 9.859,0 L 69.47,-12.974 c 2.731,-2.73 7.137,-2.73 9.858,0 l 102.068,102.07 h -12.407 c -4,0 -7.625,1.624 -10.244,4.243 -2.619,2.619 -4.244,6.255 -4.244,10.255 0,8 6.488,14.488 14.488,14.488 h 47.608 c 7.899,0 14.296,-6.396 14.296,-14.285 V 56.189 c 0,-4.01 -1.624,-7.625 -4.245,-10.254 -2.619,-2.62 -6.253,-4.245 -10.254,-4.245 -8,0 -14.498,6.489 -14.498,14.499 V 68.586 L 79.328,-53.971 c -2.721,-2.731 -7.127,-2.731 -9.849,0 l -36.306,36.297 c -2.721,2.721 -7.128,2.721 -9.859,0 l -61.547,-61.557 c -5.656,-5.666 -14.834,-5.666 -20.499,0 -2.833,2.832 -4.245,6.538 -4.245,10.244 0,3.716 1.412,7.422 4.245,10.255 l 33.737,33.736" style="stroke-width:15;stroke-linecap:round;stroke-linejoin:round;stroke-miterlimit:10;stroke-dasharray:none;stroke-opacity:1" id="path4635" fill="none" stroke="#661111" stroke-width="15" stroke-linecap="round" stroke-linejoin="round" stroke-miterlimit="10" stroke-dasharray="none" stroke-opacity="" data-original="#000000"></path></g><g id="g4637" transform="translate(294.5801,190.4824)"><path d="M 0,0 H 142.143" style="stroke-width:15;stroke-linecap:round;stroke-linejoin:round;stroke-miterlimit:10;stroke-dasharray:none;stroke-opacity:1" id="path4639" fill="none" stroke="#661111" stroke-width="15" stroke-linecap="round" stroke-linejoin="round" stroke-miterlimit="10" stroke-dasharray="none" stroke-opacity="" data-original="#000000"></path></g><g id="g4641" transform="translate(352.4521,223.3867)"><path d="M 0,0 H 84.271" style="stroke-width:15;stroke-linecap:round;stroke-linejoin:round;stroke-miterlimit:10;stroke-dasharray:none;stroke-opacity:1" id="path4643" fill="none" stroke="#661111" stroke-width="15" stroke-linecap="round" stroke-linejoin="round" stroke-miterlimit="10" stroke-dasharray="none" stroke-opacity="" data-original="#000000"></path></g><g id="g4645" transform="translate(77.71,260.3105)"><path d="M 0,0 H 52.184" style="stroke-width:15;stroke-linecap:round;stroke-linejoin:round;stroke-miterlimit:10;stroke-dasharray:none;stroke-opacity:1" id="path4647" fill="none" stroke="#661111" stroke-width="15" stroke-linecap="round" stroke-linejoin="round" stroke-miterlimit="10" stroke-dasharray="none" stroke-opacity="" data-original="#000000"></path></g><g id="g4649" transform="translate(251.1641,7.5)"><path d="M 0,0 V 0 C -7.009,0 -12.691,5.682 -12.691,12.691 V 132.863 H 12.691 V 12.691 C 12.691,5.682 7.01,0 0,0 Z" style="stroke-width:15;stroke-linecap:round;stroke-linejoin:round;stroke-miterlimit:10;stroke-dasharray:none;stroke-opacity:1" id="path4651" fill="none" stroke="#661111" stroke-width="15" stroke-linecap="round" stroke-linejoin="round" stroke-miterlimit="10" stroke-dasharray="none" stroke-opacity="" data-original="#000000"></path></g><g id="g4653" transform="translate(200.7314,140.3594)"><path d="m 0,0 -31.517,-123.311 c -1.436,-5.618 -6.497,-9.548 -12.296,-9.548 h -2.594 c -8.284,0 -14.348,7.807 -12.296,15.834 l 22.057,86.302" style="stroke-width:15;stroke-linecap:round;stroke-linejoin:round;stroke-miterlimit:10;stroke-dasharray:none;stroke-opacity:1" id="path4655" fill="none" stroke="#661111" stroke-width="15" stroke-linecap="round" stroke-linejoin="round" stroke-miterlimit="10" stroke-dasharray="none" stroke-opacity="" data-original="#000000"></path></g><g id="g4657" transform="translate(345.4102,7.5)"><path d="m 0,0 h 2.595 c 8.284,0 14.347,7.808 12.296,15.834 L -15.02,132.863 H -43.813 L -12.296,9.549 C -10.86,3.931 -5.799,0 0,0 Z" style="stroke-width:15;stroke-linecap:round;stroke-linejoin:round;stroke-miterlimit:10;stroke-dasharray:none;stroke-opacity:1" id="path4659" fill="none" stroke="#661111" stroke-width="15" stroke-linecap="round" stroke-linejoin="round" stroke-miterlimit="10" stroke-dasharray="none" stroke-opacity="" data-original="#000000"></path></g><g id="g4661" transform="translate(175.8711,140.3604)"><path d="m 0,0 c 0,-25.393 -20.587,-45.974 -45.979,-45.974 -3.561,0 -7.031,0.407 -10.361,1.171 -20.399,4.701 -35.612,22.972 -35.612,44.803 0,21.831 15.213,40.102 35.612,44.803 3.33,0.763 6.8,1.17 10.361,1.17 C -20.587,45.973 0,25.392 0,0 Z" style="stroke-width:15;stroke-linecap:round;stroke-linejoin:round;stroke-miterlimit:10;stroke-dasharray:none;stroke-opacity:1" id="path4663" fill="none" stroke="#661111" stroke-width="15" stroke-linecap="round" stroke-linejoin="round" stroke-miterlimit="10" stroke-dasharray="none" stroke-opacity="" data-original="#000000"></path></g><g id="g4665" transform="translate(129.8945,150.4736)"><path d="M 0,0 V -20.228" style="stroke-width:15;stroke-linecap:round;stroke-linejoin:round;stroke-miterlimit:10;stroke-dasharray:none;stroke-opacity:1" id="path4667" fill="none" stroke="#661111" stroke-width="15" stroke-linecap="round" stroke-linejoin="round" stroke-miterlimit="10" stroke-dasharray="none" stroke-opacity="" data-original="#000000"></path></g></g></g></g></g></svg>