<svg xmlns="http://www.w3.org/2000/svg" version="1.1" xmlns:xlink="http://www.w3.org/1999/xlink"
	xmlns:svgjs="http://svgjs.com/svgjs" width="512" height="512" x="0" y="0" viewBox="0 0 64 64"
	style="enable-background:new 0 0 512 512" xml:space="preserve" class=""><g><path d="M60.2 16.8A12.92 12.92 0 0 0 51 13h-7v-2.1l8.11-.9A1 1 0 0 0 53 9V1a1 1 0 0 0-1-1H39a1 1 0 0 0-1 1v12H19A12.984 12.984 0 0 0 6 26v12H1a1 1 0 0 0-1 1v5a1 1 0 0 0 1 1h29v18a1 1 0 0 0 2 0V45h7v18a1 1 0 0 0 2 0V45h22a1 1 0 0 0 1-1V26a12.92 12.92 0 0 0-3.8-9.2ZM40 2h11v6.105l-8.11.9A1 1 0 0 0 42 10v16a1 1 0 0 1-2 0ZM8 26a10.984 10.984 0 0 1 11-11 11.057 11.057 0 0 1 9.227 5H13a1 1 0 0 0-1 1v17H8Zm22 12h-8V27a1 1 0 0 0-.4-.8L16 22h13.239A11.015 11.015 0 0 1 30 26ZM14 23l6 4.5V38h-6ZM2 40h28v3H2Zm60 3H32V26a12.893 12.893 0 0 0-6.088-11H38v11a3 3 0 0 0 6 0V15h7a10.984 10.984 0 0 1 11 11Z" fill="#661111" data-original="#000000"></path></g></svg>