<svg xmlns="http://www.w3.org/2000/svg" version="1.1" xmlns:xlink="http://www.w3.org/1999/xlink"
	xmlns:svgjs="http://svgjs.com/svgjs" width="512" height="512" x="0" y="0" viewBox="0 0 512 512"
	style="enable-background:new 0 0 512 512" xml:space="preserve" class=""><g><g fill="rgb(0,0,0)"><path d="m322 246.54-66 66-66-66a10 10 0 0 0 -14.14 14.14l67.86 67.87a17.33 17.33 0 0 0 24.48 0l67.86-67.87a10 10 0 0 0 -14.06-14.14z" fill="#661111" data-original="#000000"></path><path d="m243.76 263.33a17.33 17.33 0 0 0 24.48 0l67.86-67.87a10 10 0 0 0 -14.1-14.14l-66 66-66-66a10 10 0 1 0 -14.14 14.14z" fill="#661111" data-original="#000000"></path></g></g></svg>