<svg xmlns="http://www.w3.org/2000/svg" version="1.1" xmlns:xlink="http://www.w3.org/1999/xlink"
	xmlns:svgjs="http://svgjs.com/svgjs" width="512" height="512" x="0" y="0"
	viewBox="0 0 682.66669 682.66669" style="enable-background:new 0 0 512 512" xml:space="preserve"
	class=""><g><defs id="defs7111"><clipPath clipPathUnits="userSpaceOnUse" id="clipPath7121"><path d="M 0,512 H 512 V 0 H 0 Z" id="path7119" fill="#661111" data-original="#000000"></path></clipPath></defs><g id="g7113" transform="matrix(1.3333333,0,0,-1.3333333,0,682.66667)"><g id="g7115"><g id="g7117" clip-path="url(#clipPath7121)"><g id="g7123" transform="translate(117.0067,167.6578)"><path d="m 0,0 27.966,16.146 c 11.876,6.857 15.946,22.043 9.089,33.919 -6.857,11.877 -22.043,15.946 -33.92,9.089 L -24.831,43.008 c -8.624,-4.979 -11.579,-16.006 -6.6,-24.63 L -24.63,6.6 C -19.651,-2.024 -8.624,-4.979 0,0 Z" style="stroke-width:15;stroke-linecap:round;stroke-linejoin:round;stroke-miterlimit:10;stroke-dasharray:none;stroke-opacity:1" id="path7125" fill="none" stroke="#661111" stroke-width="15" stroke-linecap="round" stroke-linejoin="round" stroke-miterlimit="10" stroke-dasharray="none" stroke-opacity="" data-original="#000000" class=""></path></g><g id="g7127" transform="translate(145.6796,126.8668)"><path d="M 0,0 19.003,10.972 C 30.88,17.829 34.949,33.015 28.092,44.892 21.235,56.768 6.049,60.837 -5.828,53.98 L -24.831,43.009 c -8.624,-4.98 -11.579,-16.007 -6.6,-24.631 L -24.63,6.601 C -19.651,-2.023 -8.624,-4.979 0,0 Z" style="stroke-width:15;stroke-linecap:round;stroke-linejoin:round;stroke-miterlimit:10;stroke-dasharray:none;stroke-opacity:1" id="path7129" fill="none" stroke="#661111" stroke-width="15" stroke-linecap="round" stroke-linejoin="round" stroke-miterlimit="10" stroke-dasharray="none" stroke-opacity="" data-original="#000000" class=""></path></g><g id="g7131" transform="translate(184.2045,91.7652)"><path d="M 0,0 17.724,10.232 C 29.601,17.09 33.67,32.275 26.813,44.152 19.956,56.028 4.77,60.098 -7.107,53.241 L -24.831,43.008 c -8.624,-4.979 -11.579,-16.006 -6.6,-24.63 L -24.63,6.6 C -19.651,-2.024 -8.624,-4.979 0,0 Z" style="stroke-width:15;stroke-linecap:round;stroke-linejoin:round;stroke-miterlimit:10;stroke-dasharray:none;stroke-opacity:1" id="path7133" fill="none" stroke="#661111" stroke-width="15" stroke-linecap="round" stroke-linejoin="round" stroke-miterlimit="10" stroke-dasharray="none" stroke-opacity="" data-original="#000000" class=""></path></g><g id="g7135" transform="translate(226.7597,58.9898)"><path d="m 0,0 12.603,7.276 c 11.876,6.857 15.946,22.043 9.089,33.919 -6.857,11.877 -22.044,15.947 -33.92,9.089 l -12.603,-7.276 c -8.624,-4.979 -11.579,-16.006 -6.6,-24.63 L -24.631,6.6 C -19.651,-2.024 -8.624,-4.979 0,0 Z" style="stroke-width:15;stroke-linecap:round;stroke-linejoin:round;stroke-miterlimit:10;stroke-dasharray:none;stroke-opacity:1" id="path7137" fill="none" stroke="#661111" stroke-width="15" stroke-linecap="round" stroke-linejoin="round" stroke-miterlimit="10" stroke-dasharray="none" stroke-opacity="" data-original="#000000" class=""></path></g><g id="g7139" transform="translate(312.5253,155.3999)"><path d="M 0,0 45.807,-26.447" style="stroke-width:15;stroke-linecap:round;stroke-linejoin:round;stroke-miterlimit:10;stroke-dasharray:none;stroke-opacity:1" id="path7141" fill="none" stroke="#661111" stroke-width="15" stroke-linecap="round" stroke-linejoin="round" stroke-miterlimit="10" stroke-dasharray="none" stroke-opacity="" data-original="#000000" class=""></path></g><g id="g7143" transform="translate(337.3554,198.4078)"><path d="M 0,0 55.079,-31.8" style="stroke-width:15;stroke-linecap:round;stroke-linejoin:round;stroke-miterlimit:10;stroke-dasharray:none;stroke-opacity:1" id="path7145" fill="none" stroke="#661111" stroke-width="15" stroke-linecap="round" stroke-linejoin="round" stroke-miterlimit="10" stroke-dasharray="none" stroke-opacity="" data-original="#000000" class=""></path></g><g id="g7147" transform="translate(397.0585,345.3775)"><path d="m 0,0 -43.257,-24.918 c -12.8,-7.388 -28.569,-7.387 -41.369,0.003 l -34.034,19.65 c -12.995,7.503 -29.006,7.503 -42.001,0 l -65.637,-37.895 c -3.628,-2.096 -4.871,-6.736 -2.776,-10.363 l 2.444,-4.235 c 10.269,-17.786 33.015,-23.878 50.801,-13.61 4.256,2.456 8.057,4.65 10.716,6.185 4.584,2.646 10.447,1.892 14.06,-1.976 5.825,-6.237 14.121,-10.135 23.327,-10.135 10.264,0 19.396,4.846 25.235,12.373" style="stroke-width:15;stroke-linecap:round;stroke-linejoin:round;stroke-miterlimit:10;stroke-dasharray:none;stroke-opacity:1" id="path7149" fill="none" stroke="#661111" stroke-width="15" stroke-linecap="round" stroke-linejoin="round" stroke-miterlimit="10" stroke-dasharray="none" stroke-opacity="" data-original="#000000" class=""></path></g><g id="g7151" transform="translate(421.5907,207.1197)"><path d="M 0,0 41.443,23.984" style="stroke-width:15;stroke-linecap:round;stroke-linejoin:round;stroke-miterlimit:10;stroke-dasharray:none;stroke-opacity:1" id="path7153" fill="none" stroke="#661111" stroke-width="15" stroke-linecap="round" stroke-linejoin="round" stroke-miterlimit="10" stroke-dasharray="none" stroke-opacity="" data-original="#000000" class=""></path></g><g id="g7155" transform="translate(300.3085,292.2808)"><path d="M 0,0 C -1.084,-4.366 -3.066,-8.377 -5.741,-11.824" style="stroke-width:15;stroke-linecap:round;stroke-linejoin:round;stroke-miterlimit:10;stroke-dasharray:none;stroke-opacity:1" id="path7157" fill="none" stroke="#661111" stroke-width="15" stroke-linecap="round" stroke-linejoin="round" stroke-miterlimit="10" stroke-dasharray="none" stroke-opacity="" data-original="#000000" class=""></path></g><g id="g7159" transform="translate(287.5497,112.4742)"><path d="M 0,0 23.028,-13.295" style="stroke-width:15;stroke-linecap:round;stroke-linejoin:round;stroke-miterlimit:10;stroke-dasharray:none;stroke-opacity:1" id="path7161" fill="none" stroke="#661111" stroke-width="15" stroke-linecap="round" stroke-linejoin="round" stroke-miterlimit="10" stroke-dasharray="none" stroke-opacity="" data-original="#000000" class=""></path></g><g id="g7163" transform="translate(187.7992,312.0543)"><path d="M 0,0 C -9.957,0.249 -19.75,3 -28.465,8.029 L -72.368,33.33" style="stroke-width:15;stroke-linecap:round;stroke-linejoin:round;stroke-miterlimit:10;stroke-dasharray:none;stroke-opacity:1" id="path7165" fill="none" stroke="#661111" stroke-width="15" stroke-linecap="round" stroke-linejoin="round" stroke-miterlimit="10" stroke-dasharray="none" stroke-opacity="" data-original="#000000" class=""></path></g><g id="g7167" transform="translate(330.3349,259.8062)"><path d="M 0,0 -35.768,20.65" style="stroke-width:15;stroke-linecap:round;stroke-linejoin:round;stroke-miterlimit:10;stroke-dasharray:none;stroke-opacity:1" id="path7169" fill="none" stroke="#661111" stroke-width="15" stroke-linecap="round" stroke-linejoin="round" stroke-miterlimit="10" stroke-dasharray="none" stroke-opacity="" data-original="#000000" class=""></path></g><g id="g7171" transform="translate(249.3334,77.022)"><path d="M 0,0 3.399,-1.791 32.83,-18.782 c 8.739,-5.047 19.919,-1.938 24.798,6.896 l 6.578,11.907 c 4.75,8.601 1.741,19.421 -6.768,24.333 L 40.723,34.005 81.377,10.533 c 8.741,-5.046 19.919,-1.936 24.799,6.897 l 6.577,11.907 c 4.75,8.6 1.741,19.42 -6.767,24.333 L 81.179,67.992 117.971,46.751 c 8.624,-4.98 19.652,-2.024 24.63,6.6 l 6.801,11.778 c 4.978,8.623 2.025,19.648 -6.597,24.629 l -22.497,12.995 28.206,-16.289 c 8.808,-5.086 20.076,-1.886 24.896,7.071 l 6.445,11.981 c 4.618,8.584 1.579,19.284 -6.863,24.157 l -61.06,35.253" style="stroke-width:15;stroke-linecap:round;stroke-linejoin:round;stroke-miterlimit:10;stroke-dasharray:none;stroke-opacity:1" id="path7173" fill="none" stroke="#661111" stroke-width="15" stroke-linecap="round" stroke-linejoin="round" stroke-miterlimit="10" stroke-dasharray="none" stroke-opacity="" data-original="#000000" class=""></path></g><g id="g7175" transform="translate(48.9745,230.2779)"><path d="M 0,0 39.295,-22.646" style="stroke-width:15;stroke-linecap:round;stroke-linejoin:round;stroke-miterlimit:10;stroke-dasharray:none;stroke-opacity:1" id="path7177" fill="none" stroke="#661111" stroke-width="15" stroke-linecap="round" stroke-linejoin="round" stroke-miterlimit="10" stroke-dasharray="none" stroke-opacity="" data-original="#000000" class=""></path></g><g id="g7179" transform="translate(448.1855,255.9996)"><path d="m 0,0 17.434,-30.196 c 0.288,-0.499 0.925,-0.67 1.424,-0.382 l 31.194,18.01" style="stroke-width:15;stroke-linecap:round;stroke-linejoin:round;stroke-miterlimit:10;stroke-dasharray:none;stroke-opacity:1" id="path7181" fill="none" stroke="#661111" stroke-width="15" stroke-linecap="round" stroke-linejoin="round" stroke-miterlimit="10" stroke-dasharray="none" stroke-opacity="" data-original="#000000" class=""></path></g><g id="g7183" transform="translate(425.5653,369.3023)"><path d="m 0,0 -31.193,-18.01 c -0.499,-0.288 -0.67,-0.926 -0.382,-1.425 L 5.087,-82.934" style="stroke-width:15;stroke-linecap:round;stroke-linejoin:round;stroke-miterlimit:10;stroke-dasharray:none;stroke-opacity:1" id="path7185" fill="none" stroke="#661111" stroke-width="15" stroke-linecap="round" stroke-linejoin="round" stroke-miterlimit="10" stroke-dasharray="none" stroke-opacity="" data-original="#000000" class=""></path></g><g id="g7187" transform="translate(48.9306,304.3248)"><path d="M 0,0 37.512,64.973" style="stroke-width:15;stroke-linecap:round;stroke-linejoin:round;stroke-miterlimit:10;stroke-dasharray:none;stroke-opacity:1" id="path7189" fill="none" stroke="#661111" stroke-width="15" stroke-linecap="round" stroke-linejoin="round" stroke-miterlimit="10" stroke-dasharray="none" stroke-opacity="" data-original="#000000" class=""></path></g><g id="g7191" transform="translate(45.0936,393.1705)"><path d="m 0,0 -36.014,20.792 c -0.695,0.401 -1.564,-0.1 -1.564,-0.902 v -165.42 c 0,-0.372 0.199,-0.717 0.521,-0.904 l 36.92,-21.315 c 0.498,-0.288 1.136,-0.117 1.424,0.382 l 71.629,124.064 c 0.288,0.499 0.117,1.137 -0.382,1.425 l -41.339,23.867" style="stroke-width:15;stroke-linecap:round;stroke-linejoin:round;stroke-miterlimit:10;stroke-dasharray:none;stroke-opacity:1" id="path7193" fill="none" stroke="#661111" stroke-width="15" stroke-linecap="round" stroke-linejoin="round" stroke-miterlimit="10" stroke-dasharray="none" stroke-opacity="" data-original="#000000" class=""></path></g><g id="g7195" transform="translate(425.5653,369.3023)"><path d="m 0,0 76.974,-133.321 c 0.533,-0.924 1.945,-0.546 1.945,0.52 V 43.758 c 0,0.803 -0.868,1.304 -1.564,0.902 z" style="stroke-width:15;stroke-linecap:round;stroke-linejoin:round;stroke-miterlimit:10;stroke-dasharray:none;stroke-opacity:1" id="path7197" fill="none" stroke="#661111" stroke-width="15" stroke-linecap="round" stroke-linejoin="round" stroke-miterlimit="10" stroke-dasharray="none" stroke-opacity="" data-original="#000000" class=""></path></g><g id="g7199" transform="translate(255.3891,413.7681)"><path d="m 0,0 -8.785,-4.393 c -11.521,-5.76 -20.863,-15.103 -26.624,-26.625 l -4.393,-8.784 c -0.41,-0.822 -1.583,-0.822 -1.994,0 l -4.392,8.784 c -5.761,11.522 -15.103,20.865 -26.625,26.625 L -81.598,0 c -0.821,0.41 -0.821,1.583 0,1.994 l 8.785,4.392 c 11.522,5.76 20.864,15.103 26.625,26.625 l 4.392,8.785 c 0.411,0.821 1.584,0.821 1.994,0 l 4.393,-8.785 C -29.648,21.489 -20.306,12.146 -8.785,6.386 L 0,1.994 C 0.822,1.583 0.822,0.41 0,0 Z" style="stroke-width:15;stroke-linecap:round;stroke-linejoin:round;stroke-miterlimit:10;stroke-dasharray:none;stroke-opacity:1" id="path7201" fill="none" stroke="#661111" stroke-width="15" stroke-linecap="round" stroke-linejoin="round" stroke-miterlimit="10" stroke-dasharray="none" stroke-opacity="" data-original="#000000" class=""></path></g><g id="g7203" transform="translate(352.1269,393.2261)"><path d="m 0,0 -7.32,-3.66 c -9.602,-4.801 -17.387,-12.586 -22.188,-22.187 l -3.66,-7.321 c -0.343,-0.685 -1.319,-0.685 -1.662,0 l -3.66,7.321 c -4.801,9.601 -12.586,17.386 -22.188,22.187 L -67.998,0 c -0.685,0.343 -0.685,1.319 0,1.662 l 7.32,3.66 c 9.602,4.801 17.387,12.586 22.188,22.188 l 3.66,7.32 c 0.343,0.685 1.319,0.685 1.662,0 l 3.66,-7.32 C -24.707,17.908 -16.922,10.123 -7.32,5.322 L 0,1.662 C 0.685,1.319 0.685,0.343 0,0 Z" style="stroke-width:15;stroke-linecap:round;stroke-linejoin:round;stroke-miterlimit:10;stroke-dasharray:none;stroke-opacity:1" id="path7205" fill="none" stroke="#661111" stroke-width="15" stroke-linecap="round" stroke-linejoin="round" stroke-miterlimit="10" stroke-dasharray="none" stroke-opacity="" data-original="#000000" class=""></path></g></g></g></g></g></svg>