<svg xmlns="http://www.w3.org/2000/svg" version="1.1" xmlns:xlink="http://www.w3.org/1999/xlink"
	xmlns:svgjs="http://svgjs.com/svgjs" width="512" height="512" x="0" y="0" viewBox="0 0 512 512"
	style="enable-background:new 0 0 512 512" xml:space="preserve"><g><path d="m57.044 352.436-54.65 53.685a8 8 0 0 0 5.606 13.707h152.342a117.972 117.972 0 0 0 191.317 0h152.341a8 8 0 0 0 5.606-13.707l-54.65-53.685 54.829-57.41a8 8 0 0 0 -5.785-13.526h-8.119a67.676 67.676 0 0 0 -10.348-44.313 8 8 0 0 0 -4.254-3.263 189.734 189.734 0 0 1 -41.806-19.984 8 8 0 0 0 -11.169 2.784l-14.14 24.489-14.141-24.489a8 8 0 0 0 -11.169-2.784 201.34 201.34 0 0 1 -31.914 16.387c-2.21-12.215-5.624-23.313-10.417-30.71a8 8 0 0 0 -4.253-3.262c-17.715-5.724-36.125-14.522-54.72-26.15a8 8 0 0 0 -11.169 2.783l-20.381 35.3-20.381-35.3a8 8 0 0 0 -11.169-2.783c-18.595 11.628-37 20.426-54.72 26.15a8 8 0 0 0 -4.253 3.262c-4.756 7.339-8.156 18.471-10.366 30.733a201.37 201.37 0 0 1 -31.965-16.41 8 8 0 0 0 -11.169 2.784l-14.14 24.489-14.137-24.489a8 8 0 0 0 -11.169-2.784 189.734 189.734 0 0 1 -41.806 19.984 8 8 0 0 0 -4.254 3.263 66.781 66.781 0 0 0 -10.359 44.313h-8.112a8 8 0 0 0 -5.785 13.526zm-29.484 51.392 46.324-45.506a8 8 0 0 0 .179-11.233l-47.363-49.589h123.871a117.924 117.924 0 0 0 0 106.328zm228.44 48.93a102.094 102.094 0 1 1 102.094-102.094 102.209 102.209 0 0 1 -102.094 102.094zm181.938-105.669a8 8 0 0 0 .178 11.233l46.324 45.506h-123.01a117.924 117.924 0 0 0 0-106.328h123.87zm-47.7-115.308 16.994 29.431a8 8 0 0 0 13.856 0l16.993-29.431a201.536 201.536 0 0 0 35.438 16.419 51.616 51.616 0 0 1 6.221 33.3h-120.155a205.451 205.451 0 0 0 -.434-34.857 206.039 206.039 0 0 0 31.091-14.862zm-212.664-21.169a260.315 260.315 0 0 0 48.28-22.539l23.218 40.215a8 8 0 0 0 13.856 0l23.218-40.215a260.248 260.248 0 0 0 48.277 22.537c6.735 12.929 10.239 40.159 9.67 61.5a117.909 117.909 0 0 0 -176.2.022c-.614-21.432 2.889-48.532 9.681-61.52zm-139.096 37.588a201.608 201.608 0 0 0 35.437-16.423l16.994 29.431a8 8 0 0 0 13.856 0l16.993-29.431a205.774 205.774 0 0 0 31.142 14.878 206.536 206.536 0 0 0 -.488 34.845h-120.164a50.853 50.853 0 0 1 6.23-33.3zm217.932-79.739q.427.01.853.01c12.9 0 24.832-6.7 33.684-18.938 9.511-13.148 15.129-31.757 16.7-55.309q.026-.39.013-.781a51.611 51.611 0 0 0 -51.636-50.2h-.046a51.611 51.611 0 0 0 -51.636 50.2v.416c.442 21.109 5.925 39.54 15.854 53.3 9.543 13.232 22.743 20.995 36.214 21.302zm-.41-109.219a35.672 35.672 0 0 1 35.653 34.322c-3 43.528-20.3 58.907-34.435 58.907-.148 0-.3 0-.443 0-17.275-.399-35.606-22.471-36.435-58.732a35.673 35.673 0 0 1 35.66-34.497zm74.129 274.015a8 8 0 0 0 -6.181-5.4l-41.109-7.457-19.794-36.794a8 8 0 0 0 -14.09 0l-19.794 36.794-41.109 7.455a8 8 0 0 0 -4.354 13.4l28.876 30.195-5.614 41.4a8 8 0 0 0 11.4 8.282l37.64-18.132 37.641 18.133a8 8 0 0 0 11.4-8.282l-5.614-41.4 28.873-30.192a8 8 0 0 0 1.829-8.002zm-44.929 29.923a8 8 0 0 0 -2.146 6.605l4.134 30.484-27.715-13.352a8.006 8.006 0 0 0 -6.944 0l-27.715 13.352 4.134-30.484a8 8 0 0 0 -2.146-6.605l-21.262-22.232 30.27-5.489a8 8 0 0 0 5.617-4.082l14.573-27.091 14.574 27.091a8 8 0 0 0 5.617 4.082l30.27 5.489zm129.238-153.715c.217 0 .433.008.651.008 17.133 0 37.835-15.379 40.741-58.985.018-.26.022-.52.014-.78a41.635 41.635 0 0 0 -41.656-40.5h-.047a41.636 41.636 0 0 0 -41.658 40.5v.416c.349 16.656 4.7 31.232 12.577 42.15 7.7 10.675 18.409 16.941 29.378 17.191zm-.274-84.257a25.7 25.7 0 0 1 25.674 24.625c-2.131 30.486-14.05 43.885-25.035 43.636-12.463-.284-25.69-16.614-26.321-43.464a25.7 25.7 0 0 1 25.682-24.797zm-316.053 84.257c.217 0 .433.008.652.008 17.132 0 37.835-15.379 40.74-58.985.018-.26.021-.52.014-.78a41.635 41.635 0 0 0 -41.657-40.5h-.047a41.635 41.635 0 0 0 -41.657 40.5v.416c.349 16.656 4.7 31.232 12.576 42.151 7.701 10.674 18.41 16.94 29.379 17.19zm-.274-84.257a25.7 25.7 0 0 1 25.674 24.625c-2.111 30.208-13.868 43.64-24.735 43.64-.1 0-.2 0-.3 0-12.464-.284-25.69-16.614-26.322-43.464a25.7 25.7 0 0 1 25.683-24.801z" fill="#661111" data-original="#000000"></path></g></svg>