<svg xmlns="http://www.w3.org/2000/svg" version="1.1" xmlns:xlink="http://www.w3.org/1999/xlink"
	xmlns:svgjs="http://svgjs.com/svgjs" width="512" height="512" x="0" y="0" viewBox="0 0 48 48"
	style="enable-background:new 0 0 512 512" xml:space="preserve" class=""><g><path d="m19.982 8.892c1.589-2.592 3.533-6.292 1.638-6.292-2.911 0-4.012 1.009-6.537 1.009h-.161c-2.522-.001-3.622-1.009-6.537-1.009-1.895 0 .049 3.7 1.638 6.292z" fill="#661111" data-original="#000000" class=""></path><path d="m19.148 11.12a1.494 1.494 0 0 1 0-.728h-8.287a1.494 1.494 0 0 1 0 .728z" fill="#661111" data-original="#000000" class=""></path><path d="m37.164 36.616a10.572 10.572 0 0 1 -.15 1.5c.279.008.562.014.856.014 5.69 0 8.63-1.47 8.63-2.1v-.99c-1.91 1.08-5.35 1.59-8.63 1.59-.234 0-.47-.009-.706-.014z" fill="#661111" data-original="#000000" class=""></path><path d="m36.842 33.7a10.376 10.376 0 0 1 .267 1.418c.25.006.5.012.761.012 5.7 0 8.63-1.46 8.63-2.09v-.92c-1.91 1.09-5.35 1.6-8.63 1.6-.341 0-.685-.009-1.028-.02z" fill="#661111" data-original="#000000" class=""></path><path d="m35.565 30.712a10.534 10.534 0 0 1 .777 1.467c.488.024.991.041 1.528.041 5.7 0 8.63-1.47 8.63-2.1v-.92c-1.91 1.09-5.35 1.6-8.63 1.6-.77 0-1.541-.031-2.305-.088z" fill="#661111" data-original="#000000" class=""></path><path d="m32.138 27.305a10.665 10.665 0 0 1 2.174 1.778 27.862 27.862 0 0 0 3.558.217c5.7 0 8.63-1.47 8.63-2.09v-.92c-1.91 1.08-5.35 1.59-8.63 1.59a27.167 27.167 0 0 1 -5.732-.575z" fill="#661111" data-original="#000000" class=""></path><path d="m29.25 23.37v.92c.02.63 2.95 2.09 8.62 2.09 5.7 0 8.63-1.46 8.63-2.09v-.92c-1.91 1.08-5.35 1.6-8.63 1.6s-6.71-.52-8.62-1.6z" fill="#661111" data-original="#000000" class=""></path><path d="m29.25 20.45v.93c.02.63 2.95 2.09 8.62 2.09 5.7 0 8.63-1.47 8.63-2.1v-.92c-1.91 1.09-5.35 1.6-8.63 1.6s-6.71-.51-8.62-1.6z" fill="#661111" data-original="#000000" class=""></path><path d="m37.87 20.55c5.7 0 8.63-1.47 8.63-2.1s-2.93-2.09-8.63-2.09-8.62 1.47-8.62 2.09 2.93 2.1 8.62 2.1z" fill="#661111" data-original="#000000" class=""></path><path d="m26.6 25.721a10.587 10.587 0 0 1 2.3.259c-1.016-4.9-4.125-10.479-8.238-13.36h-11.317c-5.055 3.541-8.595 11.153-8.595 16.585 0 7.295 6.381 11.841 14.25 11.841a19.792 19.792 0 0 0 2.085-.122 10.559 10.559 0 0 1 9.509-15.2z" fill="#661111" data-original="#000000" class=""></path><path d="m26.6 27.221a9.084 9.084 0 1 0 9.084 9.084 9.085 9.085 0 0 0 -9.084-9.084zm-1.09 8.333h1.883a2.607 2.607 0 0 1 0 5.214h-.193v1.438a.75.75 0 0 1 -1.5 0v-1.438h-.19a2.61 2.61 0 0 1 -2.61-2.607.75.75 0 0 1 1.5 0 1.108 1.108 0 0 0 1.107 1.107h1.883a1.107 1.107 0 0 0 0-2.214h-1.88a2.608 2.608 0 0 1 0-5.215h.19v-1.439a.75.75 0 0 1 1.5 0v1.439h.191a2.61 2.61 0 0 1 2.609 2.607.75.75 0 0 1 -1.5 0 1.108 1.108 0 0 0 -1.107-1.107h-1.883a1.108 1.108 0 0 0 0 2.215z" fill="#661111" data-original="#000000" class=""></path></g></svg>