<svg xmlns="http://www.w3.org/2000/svg" version="1.1" xmlns:xlink="http://www.w3.org/1999/xlink" xmlns:svgjs="http://svgjs.com/svgjs" width="512" height="512" x="0" y="0" viewBox="0 0 64 64" style="enable-background:new 0 0 512 512" xml:space="preserve" class="">
	<g>
		<g id="Layer_15">
			<g>
				<g>
					<path d="m57.135 59.578h-50.27c-3.234 0-5.865-2.631-5.865-5.865v-30c0-3.234 2.631-5.865 5.865-5.865h21.816c.552 0 1 .448 1 1v5.232c0 .342.273.611.622.611h3.849c.337 0 .611-.274.611-.611v-5.232c0-.552.448-1 1-1h21.373c3.234 0 5.865 2.631 5.865 5.865v30c-.001 3.234-2.632 5.865-5.866 5.865zm-50.27-39.729c-2.131 0-3.865 1.734-3.865 3.864v30c0 2.131 1.734 3.865 3.865 3.865h50.271c2.131 0 3.865-1.734 3.865-3.865v-30c0-2.131-1.734-3.865-3.865-3.865h-20.374v4.232c0 1.439-1.171 2.611-2.611 2.611h-3.849c-1.445 0-2.622-1.171-2.622-2.611v-4.232h-20.815z" fill="#ffffff" data-original="#000000" class=""></path>
				</g>
				<g>
					<path d="m17.319 44.772c-.852 0-1.687-.211-2.415-.609-1.64-.89-2.661-2.606-2.661-4.478 0-2.799 2.277-5.076 5.076-5.076s5.076 2.277 5.076 5.076c0 1.872-1.021 3.588-2.664 4.479-.752.405-1.563.608-2.412.608zm0-8.162c-1.696 0-3.076 1.38-3.076 3.076 0 1.137.62 2.18 1.617 2.721.876.479 2.012.487 2.92-.002.994-.539 1.614-1.582 1.614-2.719.001-1.696-1.379-3.076-3.075-3.076z" fill="#ffffff" data-original="#000000" class=""></path>
				</g>
				<g>
					<path d="m17.319 53.389c-3.347 0-6.473-1.317-8.803-3.708-2.259-2.295-3.505-5.347-3.505-8.589 0-6.787 5.521-12.308 12.308-12.308 6.781 0 12.297 5.521 12.297 12.308 0 3.242-1.246 6.294-3.509 8.593-2.325 2.387-5.448 3.704-8.788 3.704zm0-22.606c-5.684 0-10.308 4.624-10.308 10.308 0 2.714 1.042 5.268 2.935 7.19 1.954 2.005 4.571 3.107 7.374 3.107 2.796 0 5.41-1.102 7.359-3.104 1.896-1.926 2.938-4.48 2.938-7.194-.001-5.683-4.62-10.307-10.298-10.307z" fill="#ffffff" data-original="#000000" class=""></path>
				</g>
				<g>
					<path d="m17.319 53.389c-3.347 0-6.473-1.317-8.803-3.708-.247-.253-.341-.617-.249-.958.882-3.273 3.604-5.793 6.932-6.42.228-.042.462-.005.665.105.87.476 2.008.485 2.917-.003.202-.109.436-.146.662-.101 3.323.638 6.038 3.158 6.917 6.419.092.341-.002.705-.249.958-2.329 2.391-5.452 3.708-8.792 3.708zm-6.948-4.694c1.898 1.742 4.343 2.694 6.948 2.694 2.599 0 5.04-.952 6.937-2.693-.784-2.159-2.629-3.816-4.875-4.359-1.297.579-2.844.574-4.129 0-2.247.535-4.095 2.192-4.881 4.358z" fill="#ffffff" data-original="#000000" class=""></path>
				</g>
				<g>
					<g>
						<path d="m55.243 34.16h-21.891c-.552 0-1-.448-1-1s.448-1 1-1h21.892c.552 0 1 .448 1 1s-.449 1-1.001 1z" fill="#ffffff" data-original="#000000" class=""></path>
					</g>
					<g>
						<path d="m55.243 40.691h-21.891c-.552 0-1-.448-1-1s.448-1 1-1h21.892c.552 0 1 .448 1 1s-.449 1-1.001 1z" fill="#ffffff" data-original="#000000" class=""></path>
					</g>
					<g>
						<path d="m55.243 47.223h-21.891c-.552 0-1-.448-1-1s.448-1 1-1h21.892c.552 0 1 .448 1 1s-.449 1-1.001 1z" fill="#ffffff" data-original="#000000" class=""></path>
					</g>
				</g>
				<g>
					<path d="m38.757 29.222h-13.06c-1.249 0-2.265-1.016-2.265-2.265v-2.519c0-1.249 1.016-2.265 2.265-2.265h2.984c.552 0 1 .448 1 1v.908c0 .343.273.611.622.611h3.849c.337 0 .611-.274.611-.611v-.908c0-.552.448-1 1-1h2.995c1.249 0 2.265 1.016 2.265 2.265v2.519c-.002 1.249-1.018 2.265-2.266 2.265zm-13.06-5.049c-.151 0-.265.114-.265.265v2.519c0 .146.119.265.265.265h13.06c.139 0 .265-.126.265-.265v-2.519c0-.146-.119-.265-.265-.265h-1.996c-.049 1.397-1.201 2.519-2.609 2.519h-3.849c-1.415 0-2.571-1.122-2.62-2.519z" fill="#ffffff" data-original="#000000" class=""></path>
				</g>
				<g>
					<path d="m34.151 26.692h-3.849c-1.445 0-2.622-1.176-2.622-2.622v-17.081c0-1.416 1.152-2.567 2.567-2.567h3.946c1.416 0 2.567 1.152 2.567 2.567v17.092c.002 1.44-1.169 2.611-2.609 2.611zm-3.902-20.27c-.313 0-.567.254-.567.567v17.081c0 .343.279.622.622.622h3.849c.337 0 .611-.274.611-.611v-17.092c0-.313-.254-.567-.567-.567z" fill="#ffffff" data-original="#000000" class=""></path>
				</g>
			</g>
		</g>
	</g>
</svg>