<svg xmlns="http://www.w3.org/2000/svg" version="1.1" xmlns:xlink="http://www.w3.org/1999/xlink"
	xmlns:svgjs="http://svgjs.com/svgjs" width="512" height="512" x="0" y="0"
	viewBox="0 0 682.66669 682.66669" style="enable-background:new 0 0 512 512" xml:space="preserve"
	class="hovered-paths"><g><defs id="defs289"><clipPath clipPathUnits="userSpaceOnUse" id="clipPath299"><path d="M 0,512 H 512 V 0 H 0 Z" id="path297" fill="#661111" data-original="#000000"></path></clipPath></defs><g id="g291" transform="matrix(1.3333333,0,0,-1.3333333,0,682.66667)"><g id="g293"><g id="g295" clip-path="url(#clipPath299)"><g id="g301" transform="translate(253.52,84.4089)"><path d="m 0,0 c 1.793,31.138 6.137,62.501 8.473,77.901 0.984,6.404 4.754,12.08 10.319,15.42 10.593,6.353 21.792,11.384 32.346,15.328 8.739,3.279 17.049,5.83 24.222,7.747" style="stroke-width:15;stroke-linecap:round;stroke-linejoin:round;stroke-miterlimit:10;stroke-dasharray:none;stroke-opacity:1" id="path303" fill="none" stroke="#661111" stroke-width="15" stroke-linecap="round" stroke-linejoin="round" stroke-miterlimit="10" stroke-dasharray="none" stroke-opacity="" data-original="#000000" class="hovered-path"></path></g><g id="g305" transform="translate(376.79,200.8044)"><path d="m 0,0 c 7.173,-1.916 15.472,-4.467 24.222,-7.746 10.553,-3.945 21.742,-8.976 32.347,-15.328 5.564,-3.341 9.334,-9.017 10.318,-15.421 2.336,-15.4 6.68,-46.763 8.463,-77.901" style="stroke-width:15;stroke-linecap:round;stroke-linejoin:round;stroke-miterlimit:10;stroke-dasharray:none;stroke-opacity:1" id="path307" fill="none" stroke="#661111" stroke-width="15" stroke-linecap="round" stroke-linejoin="round" stroke-miterlimit="10" stroke-dasharray="none" stroke-opacity="" data-original="#000000" class="hovered-path"></path></g><g id="g309" transform="translate(452.9336,309.3572)"><path d="M 0,0 C 0,18.425 26.456,21.372 30.514,3.4 31.017,1.174 31.282,-1.142 31.282,-3.519 31.282,-20.796 17.276,-34.801 0,-34.801" style="stroke-width:15;stroke-linecap:butt;stroke-linejoin:round;stroke-miterlimit:10;stroke-dasharray:none;stroke-opacity:1" id="path311" fill="none" stroke="#661111" stroke-width="15" stroke-linecap="butt" stroke-linejoin="round" stroke-miterlimit="10" stroke-dasharray="none" stroke-opacity="" data-original="#000000" class="hovered-path"></path></g><g id="g313" transform="translate(315.248,323.373)"><path d="m 0,0 c 0,-8.609 -4.187,-15.588 -9.353,-15.588 -5.166,0 -9.353,6.979 -9.353,15.588 0,8.609 4.187,15.588 9.353,15.588 C -4.187,15.588 0,8.609 0,0" style="fill-opacity:1;fill-rule:nonzero;stroke:none" id="path315" fill="#661111" data-original="#000000"></path></g><g id="g317" transform="translate(315.248,323.373)"><path d="m 0,0 c 0,-8.609 -4.187,-15.588 -9.353,-15.588 -5.166,0 -9.353,6.979 -9.353,15.588 0,8.609 4.187,15.588 9.353,15.588 C -4.187,15.588 0,8.609 0,0 Z" style="stroke-width:0.25;stroke-linecap:butt;stroke-linejoin:miter;stroke-miterlimit:10;stroke-dasharray:none;stroke-opacity:1" id="path319" fill="none" stroke="#661111" stroke-width="0.25" stroke-linecap="butt" stroke-linejoin="miter" stroke-miterlimit="10" stroke-dasharray="none" stroke-opacity="" data-original="#000000" class="hovered-path"></path></g><g id="g321" transform="translate(409.124,323.373)"><path d="m 0,0 c 0,-8.609 -4.187,-15.588 -9.353,-15.588 -5.166,0 -9.353,6.979 -9.353,15.588 0,8.609 4.187,15.588 9.353,15.588 C -4.187,15.588 0,8.609 0,0" style="fill-opacity:1;fill-rule:nonzero;stroke:none" id="path323" fill="#661111" data-original="#000000"></path></g><g id="g325" transform="translate(409.124,323.373)"><path d="m 0,0 c 0,-8.609 -4.187,-15.588 -9.353,-15.588 -5.166,0 -9.353,6.979 -9.353,15.588 0,8.609 4.187,15.588 9.353,15.588 C -4.187,15.588 0,8.609 0,0 Z" style="stroke-width:0.25;stroke-linecap:butt;stroke-linejoin:miter;stroke-miterlimit:10;stroke-dasharray:none;stroke-opacity:1" id="path327" fill="none" stroke="#661111" stroke-width="0.25" stroke-linecap="butt" stroke-linejoin="miter" stroke-miterlimit="10" stroke-dasharray="none" stroke-opacity="" data-original="#000000" class="hovered-path"></path></g><g id="g329" transform="translate(352.833,177.2593)"><path d="M 0,0 V 0 C -13.233,0 -23.962,10.728 -23.962,23.962 V 39.796 H 23.963 V 23.962 C 23.963,10.728 13.234,0 0,0 Z" style="stroke-width:15;stroke-linecap:round;stroke-linejoin:round;stroke-miterlimit:10;stroke-dasharray:none;stroke-opacity:1" id="path331" fill="none" stroke="#661111" stroke-width="15" stroke-linecap="round" stroke-linejoin="round" stroke-miterlimit="10" stroke-dasharray="none" stroke-opacity="" data-original="#000000" class="hovered-path"></path></g><g id="g333" transform="translate(433.3594,177.7302)"><path d="m 0,0 c -31.18,-16.045 -29.171,-60.165 -29.171,-60.165 0,0 4.293,-15.369 7.06,-33.156" style="stroke-width:15;stroke-linecap:round;stroke-linejoin:round;stroke-miterlimit:10;stroke-dasharray:none;stroke-opacity:1" id="path335" fill="none" stroke="#661111" stroke-width="15" stroke-linecap="round" stroke-linejoin="round" stroke-miterlimit="10" stroke-dasharray="none" stroke-opacity="" data-original="#000000" class="hovered-path"></path></g><g id="g337" transform="translate(401.0098,193.0625)"><path d="M 0,0 -16.615,-46.145 -48.177,-15.803 -79.737,-46.145 -96.353,0" style="stroke-width:15;stroke-linecap:round;stroke-linejoin:round;stroke-miterlimit:10;stroke-dasharray:none;stroke-opacity:1" id="path339" fill="none" stroke="#661111" stroke-width="15" stroke-linecap="round" stroke-linejoin="round" stroke-miterlimit="10" stroke-dasharray="none" stroke-opacity="" data-original="#000000" class="hovered-path"></path></g><g id="g341" transform="translate(335.3662,126.6985)"><path d="M 0,0 17.463,16.792 34.926,0" style="stroke-width:15;stroke-linecap:round;stroke-linejoin:round;stroke-miterlimit:10;stroke-dasharray:none;stroke-opacity:1" id="path343" fill="none" stroke="#661111" stroke-width="15" stroke-linecap="round" stroke-linejoin="round" stroke-miterlimit="10" stroke-dasharray="none" stroke-opacity="" data-original="#000000" class="hovered-path"></path></g><g id="g345" transform="translate(335.2686,160.3706)"><path d="M 0,0 17.561,-16.88 35.121,0" style="stroke-width:15;stroke-linecap:round;stroke-linejoin:round;stroke-miterlimit:10;stroke-dasharray:none;stroke-opacity:1" id="path347" fill="none" stroke="#661111" stroke-width="15" stroke-linecap="round" stroke-linejoin="round" stroke-miterlimit="10" stroke-dasharray="none" stroke-opacity="" data-original="#000000" class="hovered-path"></path></g><g id="g349" transform="translate(339.4092,269.7585)"><path d="M 0,0 C 7.414,-7.414 19.435,-7.414 26.848,0" style="stroke-width:15;stroke-linecap:round;stroke-linejoin:round;stroke-miterlimit:10;stroke-dasharray:none;stroke-opacity:1" id="path351" fill="none" stroke="#661111" stroke-width="15" stroke-linecap="round" stroke-linejoin="round" stroke-miterlimit="10" stroke-dasharray="none" stroke-opacity="" data-original="#000000" class="hovered-path"></path></g><g id="g353" transform="translate(266.3477,348.1123)"><path d="m 0,0 c 19.212,5.83 33.197,23.679 33.197,44.796 0,0 49.376,-46.804 153.384,-46.804 v -56.087 c 0,-40.298 -32.654,-72.963 -72.952,-72.963 H 59.346 c -24.458,0 -46.108,12.039 -59.346,30.513" style="stroke-width:15;stroke-linecap:round;stroke-linejoin:round;stroke-miterlimit:10;stroke-dasharray:none;stroke-opacity:1" id="path355" fill="none" stroke="#661111" stroke-width="15" stroke-linecap="round" stroke-linejoin="round" stroke-miterlimit="10" stroke-dasharray="none" stroke-opacity="" data-original="#000000" class="hovered-path"></path></g><g id="g357" transform="translate(441.8301,466.3701)"><path d="m 0,0 c 19.1,-13.06 33.85,-22.78 49.12,-11.23 0,0 41.27,-78 -20.26,-130.47" style="stroke-width:15;stroke-linecap:round;stroke-linejoin:round;stroke-miterlimit:10;stroke-dasharray:none;stroke-opacity:1" id="path359" fill="none" stroke="#661111" stroke-width="15" stroke-linecap="round" stroke-linejoin="round" stroke-miterlimit="10" stroke-dasharray="none" stroke-opacity="" data-original="#000000" class="hovered-path"></path></g><g id="g361" transform="translate(235.1299,452.6899)"><path d="m 0,0 c 20.75,1.53 43.25,-9.05 43.25,-9.05 0,0 35.48,54.17 82.28,54.17 22.38,0 40.59,-6.88 56.04,-15.43" style="stroke-width:15;stroke-linecap:round;stroke-linejoin:round;stroke-miterlimit:10;stroke-dasharray:none;stroke-opacity:1" id="path363" fill="none" stroke="#661111" stroke-width="15" stroke-linecap="round" stroke-linejoin="round" stroke-miterlimit="10" stroke-dasharray="none" stroke-opacity="" data-original="#000000" class="hovered-path"></path></g><g id="g365" transform="translate(272.3115,177.7302)"><path d="m 0,0 c 31.179,-16.045 29.17,-60.165 29.17,-60.165 0,0 -4.293,-15.369 -7.06,-33.156" style="stroke-width:15;stroke-linecap:round;stroke-linejoin:round;stroke-miterlimit:10;stroke-dasharray:none;stroke-opacity:1" id="path367" fill="none" stroke="#661111" stroke-width="15" stroke-linecap="round" stroke-linejoin="round" stroke-miterlimit="10" stroke-dasharray="none" stroke-opacity="" data-original="#000000" class="hovered-path"></path></g><g id="g369" transform="translate(321.2686,146.9177)"><path d="m 0,0 c 0,0 5.388,-9.761 14.098,-20.219 4.893,-5.883 10.838,-11.987 17.463,-16.704 6.625,4.717 12.569,10.821 17.462,16.704 C 57.733,-9.761 63.122,0 63.122,0" style="stroke-width:15;stroke-linecap:round;stroke-linejoin:round;stroke-miterlimit:10;stroke-dasharray:none;stroke-opacity:1" id="path371" fill="none" stroke="#661111" stroke-width="15" stroke-linecap="round" stroke-linejoin="round" stroke-miterlimit="10" stroke-dasharray="none" stroke-opacity="" data-original="#000000" class="hovered-path"></path></g><g id="g373" transform="translate(222.438,173.4956)"><path d="m 0,0 c 26.672,13.736 43.911,41.393 43.911,72.043 v 122.846 c 0,71.478 -57.945,129.423 -129.424,129.423 -71.478,0 -129.423,-57.945 -129.423,-129.423 V 72.043 c 0,-30.659 17.247,-58.324 43.927,-72.051" style="stroke-width:15;stroke-linecap:round;stroke-linejoin:round;stroke-miterlimit:10;stroke-dasharray:none;stroke-opacity:1" id="path375" fill="none" stroke="#661111" stroke-width="15" stroke-linecap="round" stroke-linejoin="round" stroke-miterlimit="10" stroke-dasharray="none" stroke-opacity="" data-original="#000000" class="hovered-path"></path></g><g id="g377" transform="translate(37.6245,84.4089)"><path d="m 0,0 c 1.783,31.138 6.127,62.501 8.463,77.901 0.984,6.404 4.755,12.08 10.318,15.42 10.605,6.353 21.794,11.384 32.347,15.328 8.75,3.279 17.05,5.83 24.222,7.747" style="stroke-width:15;stroke-linecap:round;stroke-linejoin:round;stroke-miterlimit:10;stroke-dasharray:none;stroke-opacity:1" id="path379" fill="none" stroke="#661111" stroke-width="15" stroke-linecap="round" stroke-linejoin="round" stroke-miterlimit="10" stroke-dasharray="none" stroke-opacity="" data-original="#000000" class="hovered-path"></path></g><g id="g381" transform="translate(160.8853,200.8044)"><path d="m 0,0 c 7.172,-1.916 15.481,-4.467 24.222,-7.746 10.553,-3.945 21.752,-8.976 32.346,-15.328 5.564,-3.341 9.334,-9.017 10.318,-15.421 2.336,-15.4 6.68,-46.763 8.474,-77.901" style="stroke-width:15;stroke-linecap:round;stroke-linejoin:round;stroke-miterlimit:10;stroke-dasharray:none;stroke-opacity:1" id="path383" fill="none" stroke="#661111" stroke-width="15" stroke-linecap="round" stroke-linejoin="round" stroke-miterlimit="10" stroke-dasharray="none" stroke-opacity="" data-original="#000000" class="hovered-path"></path></g><g id="g385" transform="translate(217.4536,177.7302)"><path d="m 0,0 c -31.179,-16.045 -29.17,-60.165 -29.17,-60.165 0,0 4.293,-15.369 7.059,-33.156" style="stroke-width:15;stroke-linecap:round;stroke-linejoin:round;stroke-miterlimit:10;stroke-dasharray:none;stroke-opacity:1" id="path387" fill="none" stroke="#661111" stroke-width="15" stroke-linecap="round" stroke-linejoin="round" stroke-miterlimit="10" stroke-dasharray="none" stroke-opacity="" data-original="#000000" class="hovered-path"></path></g><g id="g389" transform="translate(185.1074,193.0625)"><path d="M 0,0 -16.615,-46.145 -48.176,-15.803 -79.737,-46.145 -96.353,0" style="stroke-width:15;stroke-linecap:round;stroke-linejoin:round;stroke-miterlimit:10;stroke-dasharray:none;stroke-opacity:1" id="path391" fill="none" stroke="#661111" stroke-width="15" stroke-linecap="round" stroke-linejoin="round" stroke-miterlimit="10" stroke-dasharray="none" stroke-opacity="" data-original="#000000" class="hovered-path"></path></g><g id="g393" transform="translate(119.4639,126.6985)"><path d="M 0,0 17.463,16.792 34.927,0" style="stroke-width:15;stroke-linecap:round;stroke-linejoin:round;stroke-miterlimit:10;stroke-dasharray:none;stroke-opacity:1" id="path395" fill="none" stroke="#661111" stroke-width="15" stroke-linecap="round" stroke-linejoin="round" stroke-miterlimit="10" stroke-dasharray="none" stroke-opacity="" data-original="#000000" class="hovered-path"></path></g><g id="g397" transform="translate(119.3667,160.3706)"><path d="M 0,0 17.561,-16.88 35.121,0" style="stroke-width:15;stroke-linecap:round;stroke-linejoin:round;stroke-miterlimit:10;stroke-dasharray:none;stroke-opacity:1" id="path399" fill="none" stroke="#661111" stroke-width="15" stroke-linecap="round" stroke-linejoin="round" stroke-miterlimit="10" stroke-dasharray="none" stroke-opacity="" data-original="#000000" class="hovered-path"></path></g><g id="g401" transform="translate(56.4058,177.7302)"><path d="m 0,0 c 31.179,-16.045 29.17,-60.165 29.17,-60.165 0,0 -4.293,-15.369 -7.059,-33.156" style="stroke-width:15;stroke-linecap:round;stroke-linejoin:round;stroke-miterlimit:10;stroke-dasharray:none;stroke-opacity:1" id="path403" fill="none" stroke="#661111" stroke-width="15" stroke-linecap="round" stroke-linejoin="round" stroke-miterlimit="10" stroke-dasharray="none" stroke-opacity="" data-original="#000000" class="hovered-path"></path></g><g id="g405" transform="translate(105.3662,146.9177)"><path d="m 0,0 c 0,0 5.388,-9.761 14.098,-20.219 4.893,-5.883 10.838,-11.987 17.463,-16.704 6.625,4.717 12.57,10.821 17.463,16.704 C 57.734,-9.761 63.122,0 63.122,0" style="stroke-width:15;stroke-linecap:round;stroke-linejoin:round;stroke-miterlimit:10;stroke-dasharray:none;stroke-opacity:1" id="path407" fill="none" stroke="#661111" stroke-width="15" stroke-linecap="round" stroke-linejoin="round" stroke-miterlimit="10" stroke-dasharray="none" stroke-opacity="" data-original="#000000" class="hovered-path"></path></g><g id="g409" transform="translate(136.9312,177.2598)"><path d="M 0,0 V 0 C -13.234,0 -23.962,10.729 -23.962,23.962 V 39.796 H 23.962 V 23.962 C 23.962,10.729 13.234,0 0,0 Z" style="stroke-width:15;stroke-linecap:round;stroke-linejoin:round;stroke-miterlimit:10;stroke-dasharray:none;stroke-opacity:1" id="path411" fill="none" stroke="#661111" stroke-width="15" stroke-linecap="round" stroke-linejoin="round" stroke-miterlimit="10" stroke-dasharray="none" stroke-opacity="" data-original="#000000" class="hovered-path"></path></g><g id="g413" transform="translate(237.0269,344.9966)"><path d="m 0,0 v -54.984 c 0,-40.29 -32.662,-72.958 -72.958,-72.958 h -54.285 c -40.29,0 -72.959,32.661 -72.959,72.958 v 54.357 c 37.882,1.088 119.154,18.558 149.14,48.545 0,0 19.936,-40.737 51.062,-47.918 z" style="stroke-width:15;stroke-linecap:round;stroke-linejoin:round;stroke-miterlimit:10;stroke-dasharray:none;stroke-opacity:1" id="path415" fill="none" stroke="#661111" stroke-width="15" stroke-linecap="round" stroke-linejoin="round" stroke-miterlimit="10" stroke-dasharray="none" stroke-opacity="" data-original="#000000" class="hovered-path"></path></g><g id="g417" transform="translate(91.5684,330.8599)"><path d="m 0,0 c -0.332,0 -11.812,-0.087 -11.812,-0.087 -2.986,0 -5.407,-2.421 -5.407,-5.407 0,-2.987 2.421,-5.408 5.407,-5.408 h 2.891 c -0.28,-1.479 -0.432,-3.053 -0.432,-4.686 0,-8.609 4.187,-15.589 9.353,-15.589 5.166,0 9.353,6.98 9.353,15.589 C 9.353,-6.979 5.166,0 0,0" style="fill-opacity:1;fill-rule:nonzero;stroke:none" id="path419" fill="#661111" data-original="#000000"></path></g><g id="g421" transform="translate(91.5684,330.8599)"><path d="m 0,0 c -0.332,0 -11.812,-0.087 -11.812,-0.087 -2.986,0 -5.407,-2.421 -5.407,-5.407 0,-2.987 2.421,-5.408 5.407,-5.408 h 2.891 c -0.28,-1.479 -0.432,-3.053 -0.432,-4.686 0,-8.609 4.187,-15.589 9.353,-15.589 5.166,0 9.353,6.98 9.353,15.589 C 9.353,-6.979 5.166,0 0,0 Z" style="stroke-width:0.5;stroke-linecap:butt;stroke-linejoin:miter;stroke-miterlimit:10;stroke-dasharray:none;stroke-opacity:1" id="path423" fill="none" stroke="#661111" stroke-width="0.5" stroke-linecap="butt" stroke-linejoin="miter" stroke-miterlimit="10" stroke-dasharray="none" stroke-opacity="" data-original="#000000" class="hovered-path"></path></g><g id="g425" transform="translate(194.0952,330.7732)"><path d="m 0,0 c 0,0 -12.201,0.087 -12.532,0.087 -5.166,0 -9.353,-6.98 -9.353,-15.588 0,-8.61 4.187,-15.589 9.353,-15.589 5.165,0 9.353,6.979 9.353,15.589 0,1.633 -0.153,3.207 -0.432,4.686 H 0 c 2.987,0 5.408,2.421 5.408,5.408 C 5.408,-2.421 2.987,0 0,0" style="fill-opacity:1;fill-rule:nonzero;stroke:none" id="path427" fill="#661111" data-original="#000000"></path></g><g id="g429" transform="translate(194.0952,330.7732)"><path d="m 0,0 c 0,0 -12.201,0.087 -12.532,0.087 -5.166,0 -9.353,-6.98 -9.353,-15.588 0,-8.61 4.187,-15.589 9.353,-15.589 5.165,0 9.353,6.979 9.353,15.589 0,1.633 -0.153,3.207 -0.432,4.686 H 0 c 2.987,0 5.408,2.421 5.408,5.408 C 5.408,-2.421 2.987,0 0,0 Z" style="stroke-width:0.5;stroke-linecap:butt;stroke-linejoin:miter;stroke-miterlimit:10;stroke-dasharray:none;stroke-opacity:1" id="path431" fill="none" stroke="#661111" stroke-width="0.5" stroke-linecap="butt" stroke-linejoin="miter" stroke-miterlimit="10" stroke-dasharray="none" stroke-opacity="" data-original="#000000" class="hovered-path"></path></g><g id="g433" transform="translate(124.165,269.3447)"><path d="M 0,0 C 7.048,-7.048 18.474,-7.048 25.522,0" style="stroke-width:15;stroke-linecap:round;stroke-linejoin:round;stroke-miterlimit:10;stroke-dasharray:none;stroke-opacity:1" id="path435" fill="none" stroke="#661111" stroke-width="15" stroke-linecap="round" stroke-linejoin="round" stroke-miterlimit="10" stroke-dasharray="none" stroke-opacity="" data-original="#000000" class="hovered-path"></path></g><g id="g437" transform="translate(472.668,48.2761)"><path d="m 0,0 h -445.571 c -6.101,0 -11.047,4.946 -11.047,11.046 v 14.045 c 0,6.1 4.946,11.046 11.047,11.046 H 0 c 6.101,0 11.047,-4.946 11.047,-11.046 V 11.046 C 11.047,4.946 6.101,0 0,0 Z" style="stroke-width:15;stroke-linecap:round;stroke-linejoin:round;stroke-miterlimit:10;stroke-dasharray:none;stroke-opacity:1" id="path439" fill="none" stroke="#661111" stroke-width="15" stroke-linecap="round" stroke-linejoin="round" stroke-miterlimit="10" stroke-dasharray="none" stroke-opacity="" data-original="#000000" class="hovered-path"></path></g><g id="g441" transform="translate(119.23,14.1899)"><path d="M 0,0 H 341.83 V 34.09 H -80.52 V 0 h 51.2" style="stroke-width:15;stroke-linecap:round;stroke-linejoin:round;stroke-miterlimit:10;stroke-dasharray:none;stroke-opacity:1" id="path443" fill="none" stroke="#661111" stroke-width="15" stroke-linecap="round" stroke-linejoin="round" stroke-miterlimit="10" stroke-dasharray="none" stroke-opacity="" data-original="#000000" class="hovered-path"></path></g></g></g></g></g></svg>